# xmcd CD database file
#
# Track frame offsets:
#	170
#	46463
#	75615
#	115789
#	168428
#	189645
#	213788
#	235954
#	271595
#
# Disc length: 3874 seconds
#
# Revision: 0
# Processed by: cddbd v1.5.1PL0 Copyright (c) Steve Scherf et al.
# Submitted via: CDex 1.51
#
DISCID=6f0f2009
DTITLE=Lisette Spinnler Quartet - in between
DYEAR=2004
DGENRE=Jazz
TTITLE0=Fountain Of Temptation
TTITLE1=Evening Blues
TTITLE2=You Don't Know What Love Is
TTITLE3=Afro Blue
TTITLE4=Lost
TTITLE5=A Secret World
TTITLE6=In Between
TTITLE7=Smile
TTITLE8=Up And Down
EXTD=YEAR: 2004
EXTT0=
EXTT1=
EXTT2=
EXTT3=
EXTT4=
EXTT5=
EXTT6=
EXTT7=
EXTT8=
PLAYORDER=
